# xmcd CD database file
# Copyright (C) 1996 Ti Kan
#
# Track frame offsets:
# 	150
# 	11980
# 	31937
# 	46125
# 	58365
# 	65005
# 	77215
# 	92400
# 	112890
# 	125250
# 	133605
# 	150550
# 	167090
# 	186882
# 	198897
#
# Disc length: 2748 seconds
#
# Revision: 1
# Processed by: cddbd v1.4b41PL1 Copyright (c) Steve Scherf et al.
# Submitted via: DiscPlay 3.4.1
#
DISCID=c40aba0f
DTITLE=Riders In The Sky - The Cowboy Way
DYEAR=1900
DGENRE=
TTITLE0=Texas Plains
TTITLE1=Back In The Saddle Again
TTITLE2=Riders In The Sky
TTITLE3=Carry Me Back To The Lone Praire
TTITLE4=Mr. Sincere (State Fair Burnout)
TTITLE5=Concerto For Violins And Longhorns
TTITLE6=Lonely Yukon Stars
TTITLE7=The Salting Of The Slug
TTITLE8=When Pay Day Rolls Around
TTITLE9=My Oklahoma
TTITLE10=Reincarnation
TTITLE11=Miss Molly
TTITLE12=Ridin' Down The Canyon (When The Desert Sun Goes Down)
TTITLE13=That's How The Yodel Was Born
TTITLE14=Happy Trails
EXTD=
EXTT0=
EXTT1=
EXTT2=
EXTT3=
EXTT4=
EXTT5=
EXTT6=
EXTT7=
EXTT8=
EXTT9=
EXTT10=
EXTT11=
EXTT12=
EXTT13=
EXTT14=
PLAYORDER=
